<?xml version="1.0" encoding="UTF-8"?> <svg xmlns="http://www.w3.org/2000/svg" xmlns:xlink="http://www.w3.org/1999/xlink" width="500" zoomAndPan="magnify" viewBox="0 0 375 374.999991" height="500" preserveAspectRatio="xMidYMid meet" version="1.0"><defs><g></g><clipPath id="id1"><path d="M 188.726562 73.816406 L 360.476562 73.816406 L 360.476562 245.566406 L 188.726562 245.566406 Z M 188.726562 73.816406 " clip-rule="nonzero"></path></clipPath><clipPath id="id2"><path d="M 144 49 L 333 49 L 333 256 L 144 256 Z M 144 49 " clip-rule="nonzero"></path></clipPath><clipPath id="id3"><path d="M 121.492188 113.457031 L 273.789062 37.363281 L 364.300781 218.511719 L 212 294.605469 Z M 121.492188 113.457031 " clip-rule="nonzero"></path></clipPath><clipPath id="id4"><path d="M 121.492188 113.457031 L 273.789062 37.363281 L 364.300781 218.511719 L 212 294.605469 Z M 121.492188 113.457031 " clip-rule="nonzero"></path></clipPath></defs><g clip-path="url(#id1)"><path fill="#ffbe0b" d="M 274.601562 73.816406 C 227.175781 73.816406 188.726562 112.265625 188.726562 159.691406 C 188.726562 207.121094 227.175781 245.566406 274.601562 245.566406 C 322.03125 245.566406 360.476562 207.121094 360.476562 159.691406 C 360.476562 112.265625 322.03125 73.816406 274.601562 73.816406 " fill-opacity="1" fill-rule="nonzero"></path></g><g clip-path="url(#id2)"><g clip-path="url(#id3)"><g clip-path="url(#id4)"><path fill="#004aad" d="M 234.503906 123.613281 C 237.480469 125.160156 239.847656 128.074219 242.835938 129.5 C 245.828125 130.925781 249.441406 130.867188 253.300781 128.9375 C 282.371094 114.414062 259.460938 69.476562 250.261719 49.183594 C 283.25 57.003906 272.21875 68.855469 277.695312 74.265625 C 280.074219 76.617188 288.96875 75.363281 294.121094 81.609375 C 298.640625 87.089844 297.347656 94.460938 294.15625 100.21875 C 293.136719 102.054688 292.648438 102.449219 294.761719 103.105469 C 297.183594 103.851562 299.542969 104.660156 301.675781 105.605469 C 307.15625 108.035156 310.746094 111.839844 311.316406 116.40625 C 312.265625 124.03125 304.75 130.148438 300.03125 135.132812 C 295.597656 139.816406 291.363281 145.226562 290.609375 153.070312 C 288.882812 144.972656 291.527344 139.816406 294.835938 135.605469 C 300.089844 128.921875 309.640625 117.601562 297.335938 111.257812 C 292.882812 108.964844 286.667969 109.488281 281.386719 110.453125 C 286.34375 104.25 290.648438 98.820312 290.695312 90.234375 C 290.734375 83.332031 285.289062 81.675781 276.351562 79.941406 C 274.714844 79.625 273.46875 78.804688 272.710938 77.285156 C 271.953125 75.769531 271.679688 73.550781 271.242188 71.382812 C 269.679688 63.65625 263.003906 58.890625 256.867188 55.105469 C 260.601562 62.070312 268.574219 79.179688 272.28125 94.28125 C 276.105469 109.847656 272.71875 128.21875 260.335938 135.617188 C 251.777344 140.726562 243.261719 140.347656 235.589844 134.449219 C 233.617188 132.933594 232.039062 131.597656 230.324219 130.820312 C 224.339844 128.121094 217.949219 132.027344 213.554688 135.863281 C 222.21875 137.160156 224.625 136.910156 231.859375 148.1875 C 245.835938 169.96875 245.714844 170.277344 273.074219 172.089844 C 298.300781 173.757812 302.488281 206.394531 302.425781 226.652344 C 302.40625 233.074219 301.617188 235.894531 301.21875 237.308594 C 300.824219 238.71875 300.824219 238.71875 301.597656 238.144531 C 307.023438 234.105469 310.976562 226.375 311.816406 219.683594 C 311.953125 218.59375 311.953125 218.59375 312.300781 218.988281 C 320.238281 227.960938 328.117188 208.417969 329.488281 202.320312 C 330.21875 199.074219 330.25 197.3125 330.265625 196.433594 C 330.28125 195.550781 330.28125 195.550781 331.070312 197.964844 C 334.347656 208 332.65625 231.253906 316.882812 228.15625 C 315.957031 227.972656 315.957031 227.972656 315.773438 228.746094 C 312.035156 244.597656 296.753906 249.332031 283.820312 255.523438 C 295.800781 234.675781 297.636719 185.417969 271.355469 178.828125 C 251.546875 173.859375 239.460938 179.160156 227.695312 157.320312 C 227.019531 156.066406 226.355469 154.820312 225.679688 153.589844 C 219.351562 142.15625 216.355469 139.976562 203.753906 139.734375 C 204.753906 138.320312 208.351562 134.105469 211.703125 130.429688 C 217.835938 123.707031 225.21875 118.78125 234.503906 123.613281 Z M 221.261719 153 C 203.46875 168.296875 162.554688 162.457031 144.570312 159.671875 C 160.953125 189.328125 169.417969 175.53125 176.101562 179.351562 C 179.007812 181.011719 180.183594 189.910156 187.589844 193.195312 C 194.085938 196.078125 200.84375 192.855469 205.539062 188.238281 C 207.039062 186.765625 207.289062 186.191406 208.484375 188.046875 C 209.855469 190.183594 211.265625 192.234375 212.75 194.035156 C 223.265625 206.785156 235.386719 192.996094 240.226562 182.171875 C 224.410156 197.675781 214.0625 195.863281 211.980469 173.203125 C 207.332031 179.636719 203.25 185.238281 194.984375 187.585938 C 188.34375 189.472656 185.289062 184.675781 181.21875 176.539062 C 180.472656 175.046875 179.347656 174.066406 177.679688 173.746094 C 176.015625 173.421875 173.804688 173.753906 171.597656 173.914062 C 163.726562 174.480469 157.34375 169.332031 152.046875 164.4375 C 164.320312 169.234375 205 175.097656 224.851562 159.542969 C 224.753906 159.367188 224.65625 159.1875 224.5625 159.011719 C 223.894531 157.777344 223.242188 156.539062 222.566406 155.316406 C 222.109375 154.488281 221.675781 153.71875 221.261719 153 " fill-opacity="1" fill-rule="evenodd"></path></g></g></g><g fill="#004aad" fill-opacity="1"><g transform="translate(30.822256, 303.492506)"><g><path d="M 4.5 0 C 3.976562 0 3.535156 -0.175781 3.171875 -0.53125 C 2.816406 -0.894531 2.640625 -1.335938 2.640625 -1.859375 L 2.640625 -9.140625 C 2.640625 -9.765625 2.734375 -10.242188 2.921875 -10.578125 C 3.117188 -10.910156 3.382812 -11.289062 3.71875 -11.71875 L 26.4375 -38.9375 L 5.140625 -38.9375 C 4.660156 -38.9375 4.242188 -39.113281 3.890625 -39.46875 C 3.535156 -39.820312 3.359375 -40.238281 3.359375 -40.71875 L 3.359375 -48.15625 C 3.359375 -48.675781 3.523438 -49.113281 3.859375 -49.46875 C 4.191406 -49.820312 4.617188 -50 5.140625 -50 L 41.5 -50 C 42.03125 -50 42.472656 -49.820312 42.828125 -49.46875 C 43.179688 -49.113281 43.359375 -48.675781 43.359375 -48.15625 L 43.359375 -40.9375 C 43.359375 -40.03125 43.050781 -39.21875 42.4375 -38.5 L 20.5 -11.21875 L 42.359375 -11.21875 C 42.878906 -11.21875 43.316406 -11.035156 43.671875 -10.671875 C 44.035156 -10.316406 44.21875 -9.878906 44.21875 -9.359375 L 44.21875 -1.78125 C 44.21875 -1.257812 44.035156 -0.832031 43.671875 -0.5 C 43.316406 -0.164062 42.878906 0 42.359375 0 Z M 4.5 0 "></path></g></g></g><g fill="#004aad" fill-opacity="1"><g transform="translate(79.042678, 303.492506)"><g><path d="M 15.28125 0.71875 C 12.757812 0.71875 10.460938 0.226562 8.390625 -0.75 C 6.316406 -1.726562 4.695312 -3.070312 3.53125 -4.78125 C 2.363281 -6.5 1.78125 -8.382812 1.78125 -10.4375 C 1.78125 -13.664062 3.125 -16.289062 5.8125 -18.3125 C 8.507812 -20.34375 12.21875 -21.738281 16.9375 -22.5 L 25.78125 -23.859375 L 25.78125 -24.71875 C 25.78125 -26.476562 25.421875 -27.765625 24.703125 -28.578125 C 23.992188 -29.390625 22.785156 -29.796875 21.078125 -29.796875 C 20.117188 -29.796875 19.316406 -29.628906 18.671875 -29.296875 C 18.035156 -28.960938 17.3125 -28.460938 16.5 -27.796875 C 15.882812 -27.265625 15.335938 -26.878906 14.859375 -26.640625 C 14.671875 -26.304688 14.429688 -26.140625 14.140625 -26.140625 L 5.859375 -26.140625 C 5.378906 -26.140625 4.984375 -26.296875 4.671875 -26.609375 C 4.367188 -26.921875 4.238281 -27.289062 4.28125 -27.71875 C 4.332031 -29 4.976562 -30.4375 6.21875 -32.03125 C 7.457031 -33.632812 9.335938 -35.003906 11.859375 -36.140625 C 14.378906 -37.285156 17.5 -37.859375 21.21875 -37.859375 C 27.125 -37.859375 31.503906 -36.5625 34.359375 -33.96875 C 37.210938 -31.375 38.640625 -27.863281 38.640625 -23.4375 L 38.640625 -1.78125 C 38.640625 -1.3125 38.472656 -0.894531 38.140625 -0.53125 C 37.804688 -0.175781 37.378906 0 36.859375 0 L 28.078125 0 C 27.597656 0 27.175781 -0.175781 26.8125 -0.53125 C 26.457031 -0.894531 26.28125 -1.3125 26.28125 -1.78125 L 26.28125 -4.28125 C 25.238281 -2.8125 23.785156 -1.609375 21.921875 -0.671875 C 20.066406 0.253906 17.851562 0.71875 15.28125 0.71875 Z M 18.859375 -7.71875 C 20.953125 -7.71875 22.65625 -8.40625 23.96875 -9.78125 C 25.28125 -11.164062 25.9375 -13.164062 25.9375 -15.78125 L 25.9375 -16.640625 L 20 -15.640625 C 16 -14.878906 14 -13.453125 14 -11.359375 C 14 -10.265625 14.460938 -9.382812 15.390625 -8.71875 C 16.316406 -8.050781 17.472656 -7.71875 18.859375 -7.71875 Z M 18.859375 -7.71875 "></path></g></g></g><g fill="#004aad" fill-opacity="1"><g transform="translate(122.833984, 303.492506)"><g><path d="M 6.71875 -42.296875 C 6.1875 -42.296875 5.742188 -42.472656 5.390625 -42.828125 C 5.035156 -43.179688 4.859375 -43.617188 4.859375 -44.140625 L 4.859375 -50.796875 C 4.859375 -51.316406 5.035156 -51.753906 5.390625 -52.109375 C 5.742188 -52.472656 6.1875 -52.65625 6.71875 -52.65625 L 16.078125 -52.65625 C 16.597656 -52.65625 17.035156 -52.472656 17.390625 -52.109375 C 17.753906 -51.753906 17.9375 -51.316406 17.9375 -50.796875 L 17.9375 -44.140625 C 17.9375 -43.617188 17.753906 -43.179688 17.390625 -42.828125 C 17.035156 -42.472656 16.597656 -42.296875 16.078125 -42.296875 Z M -2.140625 13.578125 C -2.660156 13.578125 -3.085938 13.410156 -3.421875 13.078125 C -3.753906 12.742188 -3.921875 12.3125 -3.921875 11.78125 L -3.921875 5.640625 C -3.921875 5.160156 -3.753906 4.742188 -3.421875 4.390625 C -3.085938 4.035156 -2.660156 3.859375 -2.140625 3.859375 L 0.71875 3.859375 C 2.289062 3.859375 3.382812 3.425781 4 2.5625 C 4.613281 1.707031 4.921875 0.472656 4.921875 -1.140625 L 4.921875 -35.359375 C 4.921875 -35.878906 5.097656 -36.304688 5.453125 -36.640625 C 5.816406 -36.972656 6.238281 -37.140625 6.71875 -37.140625 L 16.078125 -37.140625 C 16.597656 -37.140625 17.023438 -36.972656 17.359375 -36.640625 C 17.691406 -36.304688 17.859375 -35.878906 17.859375 -35.359375 L 17.859375 -0.859375 C 17.859375 3.765625 16.476562 7.328125 13.71875 9.828125 C 10.957031 12.328125 7.097656 13.578125 2.140625 13.578125 Z M -2.140625 13.578125 "></path></g></g></g><g fill="#004aad" fill-opacity="1"><g transform="translate(146.265623, 303.492506)"><g><path d="M 5.921875 0 C 5.398438 0 4.960938 -0.164062 4.609375 -0.5 C 4.253906 -0.832031 4.078125 -1.257812 4.078125 -1.78125 L 4.078125 -48.9375 C 4.078125 -49.457031 4.253906 -49.882812 4.609375 -50.21875 C 4.960938 -50.550781 5.398438 -50.71875 5.921875 -50.71875 L 14.859375 -50.71875 C 15.378906 -50.71875 15.804688 -50.550781 16.140625 -50.21875 C 16.472656 -49.882812 16.640625 -49.457031 16.640625 -48.9375 L 16.640625 -1.78125 C 16.640625 -1.3125 16.472656 -0.894531 16.140625 -0.53125 C 15.804688 -0.175781 15.378906 0 14.859375 0 Z M 5.921875 0 "></path></g></g></g><g fill="#004aad" fill-opacity="1"><g transform="translate(168.411393, 303.492506)"><g><path d="M 5.578125 0 C 5.046875 0 4.601562 -0.164062 4.25 -0.5 C 3.894531 -0.832031 3.71875 -1.257812 3.71875 -1.78125 L 3.71875 -11.21875 C 3.71875 -11.738281 3.894531 -12.175781 4.25 -12.53125 C 4.601562 -12.894531 5.046875 -13.078125 5.578125 -13.078125 L 15 -13.078125 C 15.519531 -13.078125 15.945312 -12.894531 16.28125 -12.53125 C 16.613281 -12.175781 16.78125 -11.738281 16.78125 -11.21875 L 16.78125 -1.78125 C 16.78125 -1.3125 16.613281 -0.894531 16.28125 -0.53125 C 15.945312 -0.175781 15.519531 0 15 0 Z M 5.578125 0 "></path></g></g></g><g fill="#004aad" fill-opacity="1"><g transform="translate(190.342849, 303.492506)"><g><path d="M 21.9375 0.71875 C 15.9375 0.71875 11.328125 -0.671875 8.109375 -3.453125 C 4.890625 -6.242188 3.140625 -10.210938 2.859375 -15.359375 C 2.804688 -15.972656 2.78125 -17.046875 2.78125 -18.578125 C 2.78125 -20.097656 2.804688 -21.164062 2.859375 -21.78125 C 3.140625 -26.832031 4.9375 -30.773438 8.25 -33.609375 C 11.5625 -36.441406 16.125 -37.859375 21.9375 -37.859375 C 27.738281 -37.859375 32.296875 -36.441406 35.609375 -33.609375 C 38.921875 -30.773438 40.71875 -26.832031 41 -21.78125 C 41.09375 -20.550781 41.140625 -19.484375 41.140625 -18.578125 C 41.140625 -17.671875 41.09375 -16.597656 41 -15.359375 C 40.71875 -10.210938 38.96875 -6.242188 35.75 -3.453125 C 32.539062 -0.671875 27.9375 0.71875 21.9375 0.71875 Z M 21.9375 -8.28125 C 23.882812 -8.28125 25.332031 -8.890625 26.28125 -10.109375 C 27.238281 -11.328125 27.789062 -13.195312 27.9375 -15.71875 C 27.976562 -16.195312 28 -17.148438 28 -18.578125 C 28 -20.003906 27.976562 -20.957031 27.9375 -21.4375 C 27.789062 -23.90625 27.238281 -25.757812 26.28125 -27 C 25.332031 -28.238281 23.882812 -28.859375 21.9375 -28.859375 C 19.976562 -28.859375 18.519531 -28.238281 17.5625 -27 C 16.613281 -25.757812 16.070312 -23.90625 15.9375 -21.4375 L 15.859375 -18.578125 L 15.9375 -15.71875 C 16.070312 -13.195312 16.613281 -11.328125 17.5625 -10.109375 C 18.519531 -8.890625 19.976562 -8.28125 21.9375 -8.28125 Z M 21.9375 -8.28125 "></path></g></g></g><g fill="#004aad" fill-opacity="1"><g transform="translate(235.634339, 303.492506)"><g><path d="M 5.859375 0 C 5.378906 0 4.960938 -0.175781 4.609375 -0.53125 C 4.253906 -0.894531 4.078125 -1.3125 4.078125 -1.78125 L 4.078125 -35.296875 C 4.078125 -35.816406 4.242188 -36.253906 4.578125 -36.609375 C 4.910156 -36.960938 5.335938 -37.140625 5.859375 -37.140625 L 14.578125 -37.140625 C 15.097656 -37.140625 15.535156 -36.960938 15.890625 -36.609375 C 16.253906 -36.253906 16.4375 -35.816406 16.4375 -35.296875 L 16.4375 -32.578125 C 17.769531 -34.054688 19.328125 -35.1875 21.109375 -35.96875 C 22.890625 -36.75 24.878906 -37.140625 27.078125 -37.140625 L 30.296875 -37.140625 C 30.816406 -37.140625 31.242188 -36.972656 31.578125 -36.640625 C 31.910156 -36.304688 32.078125 -35.878906 32.078125 -35.359375 L 32.078125 -27.578125 C 32.078125 -27.097656 31.910156 -26.675781 31.578125 -26.3125 C 31.242188 -25.957031 30.816406 -25.78125 30.296875 -25.78125 L 23.078125 -25.78125 C 21.171875 -25.78125 19.703125 -25.253906 18.671875 -24.203125 C 17.648438 -23.160156 17.140625 -21.6875 17.140625 -19.78125 L 17.140625 -1.78125 C 17.140625 -1.257812 16.960938 -0.832031 16.609375 -0.5 C 16.253906 -0.164062 15.8125 0 15.28125 0 Z M 5.859375 0 "></path></g></g></g><g fill="#004aad" fill-opacity="1"><g transform="translate(269.995909, 303.492506)"><g><path d="M 22.640625 15.71875 C 18.066406 15.71875 14.351562 14.976562 11.5 13.5 C 8.644531 12.019531 6.597656 10.316406 5.359375 8.390625 C 4.117188 6.460938 3.5 4.859375 3.5 3.578125 C 3.5 3.097656 3.6875 2.691406 4.0625 2.359375 C 4.445312 2.023438 4.878906 1.859375 5.359375 1.859375 L 14.9375 1.859375 C 15.40625 1.859375 15.78125 1.960938 16.0625 2.171875 C 16.351562 2.390625 16.617188 2.757812 16.859375 3.28125 C 17.335938 4.332031 17.957031 5.15625 18.71875 5.75 C 19.476562 6.34375 20.664062 6.640625 22.28125 6.640625 C 24.332031 6.640625 25.859375 6.128906 26.859375 5.109375 C 27.859375 4.085938 28.359375 2.382812 28.359375 0 L 28.359375 -4.78125 C 25.835938 -2.164062 22.382812 -0.859375 18 -0.859375 C 13.1875 -0.859375 9.503906 -2.25 6.953125 -5.03125 C 4.410156 -7.820312 3.019531 -11.929688 2.78125 -17.359375 L 2.71875 -19.28125 C 2.71875 -25.09375 4.015625 -29.640625 6.609375 -32.921875 C 9.203125 -36.210938 13 -37.859375 18 -37.859375 C 20.425781 -37.859375 22.566406 -37.394531 24.421875 -36.46875 C 26.285156 -35.539062 27.835938 -34.289062 29.078125 -32.71875 L 29.078125 -35.296875 C 29.078125 -35.816406 29.242188 -36.253906 29.578125 -36.609375 C 29.910156 -36.960938 30.335938 -37.140625 30.859375 -37.140625 L 39.578125 -37.140625 C 40.097656 -37.140625 40.535156 -36.960938 40.890625 -36.609375 C 41.253906 -36.253906 41.4375 -35.816406 41.4375 -35.296875 L 41.4375 -1.078125 C 41.4375 4.398438 39.789062 8.566406 36.5 11.421875 C 33.21875 14.285156 28.597656 15.71875 22.640625 15.71875 Z M 22.078125 -10.5 C 24.117188 -10.5 25.640625 -11.117188 26.640625 -12.359375 C 27.640625 -13.597656 28.210938 -15.171875 28.359375 -17.078125 C 28.410156 -17.410156 28.4375 -18.125 28.4375 -19.21875 C 28.4375 -20.363281 28.410156 -21.078125 28.359375 -21.359375 C 28.210938 -23.304688 27.640625 -24.890625 26.640625 -26.109375 C 25.640625 -27.328125 24.117188 -27.9375 22.078125 -27.9375 C 19.984375 -27.9375 18.457031 -27.300781 17.5 -26.03125 C 16.550781 -24.769531 16.03125 -23.019531 15.9375 -20.78125 L 15.859375 -19.21875 C 15.859375 -16.5 16.3125 -14.363281 17.21875 -12.8125 C 18.125 -11.269531 19.742188 -10.5 22.078125 -10.5 Z M 22.078125 -10.5 "></path></g></g></g></svg> 